HIERARCHY
ROOT hip
{
  OFFSET 0 0 0
  CHANNELS 6 Xposition Yposition Zposition Zrotation Yrotation Xrotation
  JOINT abdomen
  {
    OFFSET 0 20.6881 -0.73152
    CHANNELS 3 Zrotation Xrotation Yrotation
    JOINT chest
    {
      OFFSET 0 11.7043 -0.48768
      CHANNELS 3 Zrotation Xrotation Yrotation
      JOINT neck
      {
        OFFSET 0 22.1894 -2.19456
        CHANNELS 3 Zrotation Xrotation Yrotation
        JOINT head
        {
          OFFSET -0.24384 7.07133 1.2192
          CHANNELS 3 Zrotation Xrotation Yrotation
          JOINT leftEye
          {
            OFFSET 4.14528 8.04674 8.04672
            CHANNELS 3 Zrotation Xrotation Yrotation
            End Site
            {
              OFFSET 1 0 0
            }
          }
          JOINT rightEye
          {
            OFFSET -3.6576 8.04674 8.04672
            CHANNELS 3 Zrotation Xrotation Yrotation
            End Site
            {
              OFFSET 1 0 0
            }
          }
        }
      }
      JOINT rCollar
      {
        OFFSET -2.68224 19.2634 -4.8768
        CHANNELS 3 Zrotation Xrotation Yrotation
        JOINT rShldr
        {
          OFFSET -8.77824 -1.95073 1.46304
          CHANNELS 3 Zrotation Xrotation Yrotation
          JOINT rForeArm
          {
            OFFSET -28.1742 -1.7115 0.48768
            CHANNELS 3 Zrotation Xrotation Yrotation
            JOINT rHand
            {
              OFFSET -22.5879 0.773209 7.07136
              CHANNELS 3 Zrotation Xrotation Yrotation
              JOINT rThumb1
              {
                OFFSET -1.2192 -0.487915 3.41376
                CHANNELS 3 Zrotation Xrotation Yrotation
                JOINT rThumb2
                {
                  OFFSET -3.37035 -0.52449 3.41376
                  CHANNELS 3 Zrotation Xrotation Yrotation
                  End Site
                  {
                    OFFSET -1.78271 -1.18214 1.43049
                  }
                }
              }
              JOINT rIndex1
              {
                OFFSET -7.75947 0.938293 5.60832
                CHANNELS 3 Zrotation Xrotation Yrotation
                JOINT rIndex2
                {
                  OFFSET -2.54057 -0.884171 1.56538
                  CHANNELS 3 Zrotation Xrotation Yrotation
                  End Site
                  {
                    OFFSET -1.62519 -0.234802 1.16502
                  }
                }
              }
              JOINT rMid1
              {
                OFFSET -8.24714 1.18213 3.41376
                CHANNELS 3 Zrotation Xrotation Yrotation
                JOINT rMid2
                {
                  OFFSET -3.10165 -0.590103 1.0647
                  CHANNELS 3 Zrotation Xrotation Yrotation
                  End Site
                  {
                    OFFSET -2.48547 -0.328903 0.83742
                  }
                }
              }
              JOINT rRing1
              {
                OFFSET -8.82822 0.546677 1.51678
                CHANNELS 3 Zrotation Xrotation Yrotation
                JOINT rRing2
                {
                  OFFSET -2.60934 -0.819778 -0.0198488
                  CHANNELS 3 Zrotation Xrotation Yrotation
                  End Site
                  {
                    OFFSET -2.33842 -0.294052 0.168128
                  }
                }
              }
              JOINT rPinky1
              {
                OFFSET -8.27202 -0.0477905 -0.4584
                CHANNELS 3 Zrotation Xrotation Yrotation
                JOINT rPinky2
                {
                  OFFSET -1.82734 -0.647385 -0.700984
                  CHANNELS 3 Zrotation Xrotation Yrotation
                  End Site
                  {
                    OFFSET -1.69225 -0.51767 -0.607171
                  }
                }
              }
            }
          }
        }
      }
      JOINT lCollar
      {
        OFFSET 2.68224 19.2634 -4.8768
        CHANNELS 3 Zrotation Xrotation Yrotation
        JOINT lShldr
        {
          OFFSET 8.77824 -1.95073 1.46304
          CHANNELS 3 Zrotation Xrotation Yrotation
          JOINT lForeArm
          {
            OFFSET 28.1742 -1.7115 0.48768
            CHANNELS 3 Zrotation Xrotation Yrotation
            JOINT lHand
            {
              OFFSET 22.5879 0.773209 7.07136
              CHANNELS 3 Zrotation Xrotation Yrotation
              JOINT lThumb1
              {
                OFFSET 1.2192 -0.487915 3.41376
                CHANNELS 3 Zrotation Xrotation Yrotation
                JOINT lThumb2
                {
                  OFFSET 3.37035 -0.52449 3.41376
                  CHANNELS 3 Zrotation Xrotation Yrotation
                  End Site
                  {
                    OFFSET 1.78271 -1.18214 1.43049
                  }
                }
              }
              JOINT lIndex1
              {
                OFFSET 7.75947 0.938293 5.60832
                CHANNELS 3 Zrotation Xrotation Yrotation
                JOINT lIndex2
                {
                  OFFSET 2.54057 -0.884171 1.56538
                  CHANNELS 3 Zrotation Xrotation Yrotation
                  End Site
                  {
                    OFFSET 1.62519 -0.234802 1.16502
                  }
                }
              }
              JOINT lMid1
              {
                OFFSET 8.24714 1.18213 3.41376
                CHANNELS 3 Zrotation Xrotation Yrotation
                JOINT lMid2
                {
                  OFFSET 3.10165 -0.590103 1.0647
                  CHANNELS 3 Zrotation Xrotation Yrotation
                  End Site
                  {
                    OFFSET 2.48547 -0.328903 0.83742
                  }
                }
              }
              JOINT lRing1
              {
                OFFSET 8.82822 0.546677 1.51678
                CHANNELS 3 Zrotation Xrotation Yrotation
                JOINT lRing2
                {
                  OFFSET 2.60934 -0.819778 -0.0198488
                  CHANNELS 3 Zrotation Xrotation Yrotation
                  End Site
                  {
                    OFFSET 2.33842 -0.294052 0.168128
                  }
                }
              }
              JOINT lPinky1
              {
                OFFSET 8.27202 -0.0477905 -0.4584
                CHANNELS 3 Zrotation Xrotation Yrotation
                JOINT lPinky2
                {
                  OFFSET 1.82734 -0.647385 -0.700984
                  CHANNELS 3 Zrotation Xrotation Yrotation
                  End Site
                  {
                    OFFSET 1.69225 -0.51767 -0.607171
                  }
                }
              }
            }
          }
        }
      }
    }
  }
  JOINT rButtock
  {
    OFFSET -8.77824 4.35084 1.2192
    CHANNELS 3 Zrotation Xrotation Yrotation
    JOINT rThigh
    {
      OFFSET 0 -1.70687 -2.19456
      CHANNELS 3 Zrotation Xrotation Yrotation
      JOINT rShin
      {
        OFFSET 0 -36.8199 0.73152
        CHANNELS 3 Zrotation Xrotation Yrotation
        JOINT rFoot
        {
          OFFSET 0.73152 -45.1104 -5.12064
          CHANNELS 3 Zrotation Xrotation Yrotation
          End Site
          {
            OFFSET -1.1221 -3.69964 12.103
          }
        }
      }
    }
  }
  JOINT lButtock
  {
    OFFSET 8.77824 4.35084 1.2192
    CHANNELS 3 Zrotation Xrotation Yrotation
    JOINT lThigh
    {
      OFFSET 0 -1.70687 -2.19456
      CHANNELS 3 Zrotation Xrotation Yrotation
      JOINT lShin
      {
        OFFSET 0 -36.8199 0.73152
        CHANNELS 3 Zrotation Xrotation Yrotation
        JOINT lFoot
        {
          OFFSET -0.73152 -45.1104 -5.12064
          CHANNELS 3 Zrotation Xrotation Yrotation
          End Site
          {
            OFFSET 1.1221 -3.69964 12.103
          }
        }
      }
    }
  }
}
MOTION
Frames:	8
Frame Time:	0.00833333
0.0 0.0 0.0 0.0 0.0 0.0 0.0 0.0 0.0 0.0 0.0 0.0 0.0 0.0 0.0 0.0 0.0 0.0 0.0 0.0 0.0 0.0 0.0 0.0 0.0 0.0 0.0 0.0 0.0 0.0 0.0 0.0 0.0 0.0 0.0 0.0 0.0 0.0 0.0 0.0 0.0 0.0 0.0 0.0 0.0 0.0 0.0 0.0 0.0 0.0 0.0 0.0 0.0 0.0 0.0 0.0 0.0 0.0 0.0 0.0 0.0 0.0 0.0 0.0 0.0 0.0 0.0 0.0 0.0 0.0 0.0 0.0 0.0 0.0 0.0 0.0 0.0 0.0 0.0 0.0 0.0 0.0 0.0 0.0 0.0 0.0 0.0 0.0 0.0 0.0 0.0 0.0 0.0 0.0 0.0 0.0 0.0 0.0 0.0 0.0 0.0 0.0 0.0 0.0 0.0 0.0 0.0 0.0 0.0 0.0 0.0 0.0 0.0 0.0 0.0 0.0 0.0 0.0 0.0 0.0 0.0 0.0 0.0 0.0 0.0 0.0 0.0 0.0 0.0 0.0 0.0 0.0
155.727 83.4216 -8.45331 0.0 -0.0 -0.0 -0.0 0.0 -0.0 -0.0 -0.0 0.0 0.245875 19.608241 -158.802917 7.579128 18.139248 157.548848 0.0 -0.0 -0.0 0.0 -0.0 -0.0 -9.651699 34.836178 11.199233 -165.624866 -12.812046 -177.374858 163.30116 77.20244 -160.961384 -9.569162 28.716885 1.446914 -6.581133 6.344846 1.36571 -109.780414 -0.693952 99.557354 45.282556 -63.865437 4.306423 11.672151 3.371112 5.497168 -160.937898 -7.488186 143.367502 -164.366543 -17.868352 143.871541 -74.840941 72.961123 92.827929 -147.597549 -40.917073 -163.198667 -86.171571 -50.468117 -84.540001 -79.736124 -55.840968 -80.545678 155.417258 -2.951435 -161.718542 -12.81679 17.313084 -18.111071 156.993498 -42.557081 -179.185142 -28.137022 -54.721285 -16.912316 -178.619005 -18.760041 -89.038626 176.16181 -12.588949 -98.122717 -1.506441 -2.484713 0.828391 72.006518 47.02316 -46.66041 -173.123457 -66.297779 -137.614274 -124.750694 -74.610145 -92.555057 -0.003602 0.605735 -0.190285 0.037294 -0.147024 0.132873 16.204317 -29.123205 15.473776 150.48879 18.507531 146.467532 -180.0 75.749642 -0.0 -180.0 73.473292 -180.0 4.801803 -5.525369 128.008574 -153.434393 -60.326872 -29.091834 -180.0 75.749642 -0.0 -180.0 73.473292 -180.0 7.166984 -6.598021 101.486098 79.217502 69.217804 -6.421861
155.536 83.4557 -8.55069 0.0 -0.0 -0.0 -0.0 0.0 -0.0 -0.0 -0.0 -0.0 -3.941986 17.932259 -132.771391 10.667824 15.013811 131.983833 -0.0 -0.0 0.0 -0.0 -0.0 0.0 -155.417258 -2.951435 161.718542 17.824299 2.241168 16.283611 2.496307 -27.762662 -33.900892 167.034881 -26.031648 142.224367 -178.927535 -16.453687 89.421826 -4.660929 -55.376769 2.066514 -138.493513 4.896353 114.8648 111.946819 -75.569797 51.350172 -167.375306 -28.008469 145.269175 -160.646008 -5.488638 141.927061 -145.121957 1.974539 -179.748654 -139.180754 81.290089 163.572917 -16.662593 -29.659212 -15.919774 -130.512496 -30.11887 -128.001934 155.417258 -2.951435 -161.718542 -24.917227 -20.67384 -15.96816 91.800804 -75.733993 110.414334 -33.04703 -58.391773 -21.161202 -176.505527 -20.695006 -88.628526 127.811312 18.046018 -64.437529 151.353117 -17.158427 -121.133109 149.347481 -12.907258 -120.884311 168.142095 -30.382074 -145.338911 -168.164115 -63.28461 -130.09071 145.111781 -0.626713 178.931407 36.493685 87.318534 -60.05621 111.800364 -40.681617 109.845664 19.080219 -39.680869 21.511075 -180.0 75.749642 -0.0 -180.0 73.473292 -180.0 4.801803 -5.525369 128.008574 -153.434393 -60.326872 -29.091834 -180.0 75.749642 -0.0 -180.0 73.473292 -180.0 7.166984 -6.598021 101.486098 79.217502 69.217804 -6.421861
155.362 83.4866 -8.66722 0.0 -0.0 -0.0 -0.0 0.0 -0.0 -0.0 -0.0 -0.0 -3.941986 17.932259 -132.771391 10.667824 15.013811 131.983833 0.0 -0.0 -0.0 0.0 -0.0 -0.0 -155.417258 -2.951435 161.718542 17.824299 2.241168 16.283611 2.496307 -27.762662 -33.900892 167.034881 -26.031648 142.224367 -178.927535 -16.453687 89.421826 -4.660929 -55.376769 2.066514 -138.493513 4.896353 114.8648 111.946819 -75.569797 51.350172 -167.375306 -28.008469 145.269175 -160.646008 -5.488638 141.927061 -145.121957 1.974539 -179.748654 22.045986 63.284915 -1.517208 -16.662593 -29.659212 -15.919774 -130.512496 -30.11887 -128.001934 155.417258 -2.951435 -161.718542 -19.503551 -3.216578 -15.950818 -179.165819 19.27722 179.818975 8.398437 25.624407 -1.018728 85.829417 38.630721 -47.955432 1.053691 -15.654775 -25.846233 1.39698 2.231723 -0.807408 -179.138345 -23.887396 -109.054161 -173.123457 -66.297779 -137.614274 -3.972742 1.127558 -3.151944 -0.004672 0.917785 -0.288305 0.069865 -0.024612 0.176635 26.564207 -38.860901 25.60587 158.25005 55.128966 152.562948 -180.0 75.749642 -0.0 -180.0 73.473292 -180.0 4.801803 -5.525369 128.008574 -153.434393 -60.326872 -29.091834 -180.0 75.749642 -0.0 -180.0 73.473292 -180.0 7.166984 -6.598021 101.486098 79.217502 69.217804 -6.421861
155.205 83.4996 -8.76906 0.0 -0.0 -0.0 -0.0 0.0 -0.0 -0.0 -0.0 -0.0 -3.941986 17.932259 -132.771391 10.667824 15.013811 131.983833 0.0 -0.0 -0.0 0.0 -0.0 -0.0 -155.417258 -2.951435 161.718542 17.824299 2.241168 16.283611 2.496307 -27.762662 -33.900892 167.034881 -26.031648 142.224367 -178.927535 -16.453687 89.421826 -4.660929 -55.376769 2.066514 -138.493513 4.896353 114.8648 111.946819 -75.569797 51.350172 -167.375306 -28.008469 145.269175 -160.646008 -5.488638 141.927061 -145.121957 1.974539 -179.748654 22.045986 63.284915 -1.517208 -16.662593 -29.659212 -15.919774 -130.512496 -30.11887 -128.001934 155.417258 -2.951435 -161.718542 -19.503551 -3.216578 -15.950818 -179.165819 19.27722 179.818975 8.398437 25.624407 -1.018728 85.829417 38.630721 -47.955432 1.053691 -15.654775 -25.846233 1.39698 2.231723 -0.807408 -179.138345 -23.887396 -109.054161 -173.123457 -66.297779 -137.614274 -3.972742 1.127558 -3.151944 -0.004672 0.917785 -0.288305 0.069865 -0.024612 0.176635 26.564207 -38.860901 25.60587 158.25005 55.128966 152.562948 -180.0 75.749642 -0.0 -180.0 73.473292 -180.0 4.801803 -5.525369 128.008574 -153.434393 -60.326872 -29.091834 -180.0 75.749642 -0.0 -180.0 73.473292 -180.0 7.166984 -6.598021 101.486098 79.217502 69.217804 -6.421861
155.061 83.5138 -8.83203 0.0 -0.0 -0.0 -0.0 0.0 -0.0 -0.0 -0.0 -0.0 -3.941986 17.932259 -132.771391 10.667824 15.013811 131.983833 0.0 -0.0 -0.0 0.0 -0.0 -0.0 -155.417258 -2.951435 161.718542 17.824299 2.241168 16.283611 2.496307 -27.762662 -33.900892 167.034881 -26.031648 142.224367 -178.927535 -16.453687 89.421826 -4.660929 -55.376769 2.066514 -138.493513 4.896353 114.8648 143.765019 -73.755985 81.093785 -167.375306 -28.008469 145.269175 -160.646008 -5.488638 141.927061 -145.121957 1.974539 -179.748654 22.045986 63.284915 -1.517208 -16.662593 -29.659212 -15.919774 -76.844403 -56.073331 -75.114715 155.417258 -2.951435 -161.718542 -19.503551 -3.216578 -15.950818 -179.165819 19.27722 179.818975 8.398437 25.624407 -1.018728 85.829417 38.630721 -47.955432 1.053691 -15.654775 -25.846233 1.39698 2.231723 -0.807408 -179.138345 -23.887396 -109.054161 -173.123457 -66.297779 -137.614274 -3.972742 1.127558 -3.151944 -0.004673 0.918035 -0.288384 164.170482 17.271987 -169.518534 26.564207 -38.860901 25.60587 158.25005 55.128966 152.562948 -180.0 75.749642 -0.0 -180.0 73.473292 -180.0 5.467228 -7.138989 112.827372 -29.13572 -65.24666 70.835871 -180.0 75.749642 -0.0 -180.0 73.473292 -180.0 7.475086 -7.806967 90.632939 151.142355 -7.645015 -104.908123
154.815 83.5333 -8.95386 0.0 -0.0 -0.0 -0.0 0.0 -0.0 -0.0 -0.0 0.0 0.245875 19.608241 -158.802917 7.579128 18.139248 157.548848 -0.0 -0.0 0.0 -0.0 -0.0 0.0 -9.651699 34.836178 11.199233 -165.624866 -12.812046 -177.374858 163.30116 77.20244 -160.961384 -9.569162 28.716885 1.446914 4.53085 -4.514112 -0.520964 -77.496922 27.994718 69.550491 -19.170572 24.114561 13.380841 -177.442383 -21.2477 115.058079 -160.937898 -7.488186 143.367502 -40.081023 58.596612 37.354148 -77.742735 72.902851 95.870145 11.025389 29.494226 -12.503004 -124.851156 -29.038378 -122.621388 -125.259454 -30.83442 -126.162936 155.417258 -2.951435 -161.718542 159.644303 -17.676092 -162.174913 64.04618 73.92981 -42.277824 -107.401311 -69.680381 -91.072773 7.758532 7.439094 -1.682075 18.871799 16.254919 -20.42863 -179.29168 -59.501832 -116.31629 179.795529 -48.127635 -100.807395 36.036059 51.723116 -29.832321 40.069278 60.2871 -32.287882 78.571366 -72.041604 95.867435 -17.159629 -13.080187 -4.219817 -0.098846 0.258289 -0.091255 140.118061 -14.216142 135.330361 -180.0 75.749642 -0.0 -180.0 73.473292 -180.0 5.467228 -7.138989 112.827372 -29.13572 -65.24666 70.835871 -180.0 75.749642 -0.0 -180.0 73.473292 -180.0 7.475086 -7.806967 90.632939 151.142355 -7.645015 -104.908123
154.716 83.5322 -8.97036 0.0 -0.0 -0.0 -0.0 0.0 -0.0 -0.0 -0.0 -0.0 -3.941986 17.932259 -132.771391 10.667824 15.013811 131.983833 -0.0 -0.0 0.0 -0.0 -0.0 0.0 -155.417258 -2.951435 161.718542 17.824299 2.241168 16.283611 2.496307 -27.762662 -33.900892 167.034881 -26.031648 142.224367 -178.927535 -16.453687 89.421826 -4.660929 -55.376769 2.066514 -138.493513 4.896353 114.8648 111.946819 -75.569797 51.350172 -167.375306 -28.008469 145.269175 -160.646008 -5.488638 141.927061 -145.121957 1.974539 -179.748654 22.045986 63.284915 -1.517208 -16.662593 -29.659212 -15.919774 -130.512496 -30.11887 -128.001934 155.417258 -2.951435 -161.718542 -24.917227 -20.67384 -15.96816 91.800804 -75.733993 110.414334 -33.04703 -58.391773 -21.161202 -176.505527 -20.695006 -88.628526 127.811312 18.046018 -64.437529 151.353117 -17.158427 -121.133109 149.347481 -12.907258 -120.884311 168.142095 -30.382074 -145.338911 -168.164115 -63.28461 -130.09071 145.111781 -0.626713 178.931407 -22.241966 29.164475 5.559767 111.800364 -40.681617 109.845664 19.080219 -39.680869 21.511075 -180.0 75.749642 -0.0 -180.0 73.473292 -180.0 4.801803 -5.525369 128.008574 -153.434393 -60.326872 -29.091834 -180.0 75.749642 -0.0 -180.0 73.473292 -180.0 7.166984 -6.598021 101.486098 79.217502 69.217804 -6.421861
